<?xml version="1.0" encoding="UTF-8"?>
<svg version="1.1" viewBox="0 0 2048 431" width="1087" height="229" xmlns="http://www.w3.org/2000/svg">
<path transform="translate(1086,42)" d="m0 0h24l24 3 20 5 25 10 18 10 14 10 14 12 13 13 11 14 11 17 11 23 6 18 4 17 2 14 1 15v11l-1 16-4 22-10 30-10 19-9 14-11 14-14 15-11 9-12 9-20 12-21 9-24 7-17 3h-47l-20-4-24-7-22-10-11-7-14-10-14-12-11-11-9-11-8-11-9-15-9-20-5-15-4-15-2-11v-52l4-20 9-27 8-16 9-15 11-14 11-12 12-12 17-13 20-12 19-8 20-6 16-3zm-3 36-20 3-20 6-18 8-11 7-12 9-10 9-9 9-9 12-9 14-8 17-6 18-4 22v32l4 22 8 23 10 19 9 12 12 14 8 7 14 11 13 8 24 10 15 4 19 3h30l22-4 18-6 16-7 17-11 11-9 10-9 9-11 10-14 9-17 7-20 4-19 1-11v-22l-2-17-4-17-7-18-7-14-11-16-11-12-9-9-13-10-21-12-15-6-22-6-17-2z" fill="#4C40E1"/>
<path transform="translate(1083,84)" d="m0 0h27l20 3 20 6 22 11 11 8 11 9 14 14 10 14 8 14 7 15 6 23 2 11 1 19-2 20-5 21-5 13-8 16-8 12-9 11-15 15-17 12-19 10-21 7-16 3-9 1h-24l-20-3-22-7-17-8-16-11-11-9-10-10-13-17-9-16-7-17-4-15-3-17v-28l4-22 6-18 8-17 10-15 11-13 8-8 14-11 16-10 15-7 19-6zm8 11-9 3 1 9 7 21 5 16 3 1 9-27 3-12v-7l-4-4zm-28 4-15 5-4 3v9l10 28 9 27 9 10 9 6h4l6-19-1-7-5-17-8-26-6-16-3-3zm62 0-4 5-15 49-4 13 6 20 4 1 9-6 5-4 6-10 8-25 8-22 1-5v-8l-5-4-15-4zm-96 15-11 7-10 8 1 4 8 7 11 8 16 12 5 3-2-9-13-38-2-2zm133 0-4 5-12 36-1 7 7-4 21-16 8-7 3-5-2-6-14-8zm31 26-9 6-13 10-18 13-13 10-5 9-3 8v6l7 2h11l8-3 16-11 20-14 12-9 4-5-1-5-6-9-6-7zm-196 1-5 5-6 8-3 9 9 8 12 8 14 10 16 11 8 4h17l3-3-2-10-4-8-7-8-17-12-16-12-13-9zm218 32-19 13-18 13-4 4h50l2-2-1-7-6-18-2-3zm-239 2-4 4-3 9-1 6v8l1 1h49l-2-4-19-13-15-10zm120 13-7 6-6 2h-10l-2 9-5 7-9 2 2 4 3 5v11l-3 6 8 5 4 6 1 11 4-2h11l4 3h2v2h2l1 3 3-1 4-5 4-2h14l2-10 7-8 4-2-1-4-2-3v-9l5-8v-2l-9-3-5-8-1-10-6 3-9-1-5-3-3-4zm-128 25-3 3v23l3 3 7 1 55-1 12-4 10-7 2-4-9-8-11-5-5-1zm225 0-36 1-9 6-9 7 2 4 11 7 11 4h60l5-3 2-5-1-15-2-5-3-1zm-148 38-11 4-13 10-12 8-14 10-9 7-3 5 3 7 9 11 3 2 5-1 14-10 13-10 19-14 6-5 5-10 3-12-3-2zm90 0-3 1v7l4 11 6 8 17 13 16 12 14 10 8 1 5-5 4-5 4-8-1-5-10-8-12-8-11-8-19-13-7-3zm-164 2-3 1v7l7 20 4 1 10-7 19-13 11-8v-1zm204 0 5 5 17 12 10 7 8 4 4-1 3-4 4-17-1-5-3-1zm-94 15-9 7-8 8-4 9-5 16-11 33v7l3 3 16 5h6l4-5 8-27 8-25 2-7-1-7-5-16zm28 1-3 5-3 13 1 9 9 30 8 25 5 5 10-1 12-5 2-3-1-8-12-35-5-15-6-12-8-6-4-2zm36 25 1 7 12 34 3 5 6 1 9-6 10-9-2-4-14-11-11-8-13-9zm-100 1-36 27-2 3 4 4 17 12 4 1 3-4 12-36 2-7zm51 15-4 10-7 24-3 8v7l2 1h25l3-3-4-16-10-31z" fill="#4C40E1"/>
<path transform="translate(1346,39)" d="m0 0h25l13 17 14 19 11 15 56 76 12 16 70 95 9 12 13 18 14 19 11 16 11 17 7 11 1 1-3-59-1-37v-235l1-1h25l1 1v366h-26l-8-11-28-38-12-16-70-95-9-12-14-19-13-18-10-13-10-14-9-12-13-18-14-20-15-22-10-15-4-7-2-1 2 38 1 31v262h-26z" fill="#4C40E1"/>
<path transform="translate(1917,35)" d="m0 0 25 1 25 3 30 7 19 7 1 4-8 19-6-2-16-6-24-6-25-3h-41l-29 4-26 7-20 8-11 6-17 11-14 12-12 13-11 16-10 19-6 16-4 16-3 21v31l4 27 5 17 8 19 9 16 10 13 8 9 8 7 16 12 18 10 24 9 14 4 17 3 25 2h26l30-2 22-4 24-8 1-126h-95v-22h121l1 1v161l-4 3-25 8-25 6-33 5-27 2h-21l-17-1-31-5-21-6-20-8-17-9-16-11-14-12-11-11-11-14-9-15-10-21-7-22-4-21-2-17v-30l4-25 6-21 9-21 10-17 10-14 12-13 4-5 8-7 13-10 15-10 16-8 19-8 21-6 18-4 24-3z" fill="#4C40E1"/>
<path transform="translate(307,39)" d="m0 0h25l1 1 1 231 4 29 5 18 8 19 10 16 10 11 10 8 16 9 14 5 15 3 9 1h20l24-4 15-5 17-9 11-9 8-8 10-14 8-16 7-22 4-23 1-14 1-227h27v228l-3 26-5 21-6 18-10 20-8 11-11 13-8 7-16 11-16 8-21 7-17 3-10 1h-30l-21-3-24-8-15-8-12-9-10-9-9-11-9-14-8-17-7-22-4-21-2-24v-227z" fill="#4C40E1"/>
<path transform="translate(119,33)" d="m0 0h28l26 3 19 5 15 6 7 4-2 6-8 16-6-2-18-8-19-5-15-2h-30l-18 3-12 4-13 7-11 9-9 12-6 14-2 8v22l3 12 8 16 8 9 15 11 15 8 29 11 26 9 19 8 18 10 11 8 10 9 7 8 9 15 5 16 2 11 1 19-2 15-4 15-4 10-8 13-12 14-13 10-16 9-24 8-17 3-10 1h-32l-23-3-26-7-17-7-13-7-4-4 10-21 4 1 14 8 19 8 18 5 27 4h21l19-3 15-4 17-8 12-9 8-9 6-10 5-13 2-9v-24l-4-15-5-12-8-10-7-7-10-7-16-9-29-11-26-9-21-9-16-9-16-12-10-10-9-14-5-12-4-20v-16l4-18 5-13 10-16 13-13 16-11 21-9 16-4z" fill="#4C40E1"/>
<path transform="translate(684,39)" d="m0 0h26l1 1v344h183v22h-210z" fill="#4C40E1"/>
<path transform="translate(1091,201)" d="m0 0h12l10 4 8 9 3 8v12l-6 12-9 7-6 2h-13l-10-5-7-8-3-7v-15l5-10 7-6zm1 17-4 4-1 2v7l2 4 4 2h7l5-3 2-3v-7l-5-6z" fill="#4C40E1"/>
</svg>
